<?xml version="1.0" encoding="UTF-8" standalone="no"?>
<!-- Generator: Adobe Illustrator 17.0.0, SVG Export Plug-In . SVG Version: 6.00 Build 0)  -->

<svg
   xmlns:dc="http://purl.org/dc/elements/1.1/"
   xmlns:cc="http://creativecommons.org/ns#"
   xmlns:rdf="http://www.w3.org/1999/02/22-rdf-syntax-ns#"
   xmlns:svg="http://www.w3.org/2000/svg"
   xmlns="http://www.w3.org/2000/svg"
   xmlns:sodipodi="http://sodipodi.sourceforge.net/DTD/sodipodi-0.dtd"
   xmlns:inkscape="http://www.inkscape.org/namespaces/inkscape"
   version="1.1"
   id="Layer_1"
   x="0px"
   y="0px"
   width="42px"
   height="42px"
   viewBox="0 0 42 42"
   enable-background="new 0 0 42 42"
   xml:space="preserve"
   inkscape:version="0.91 r13725"
   sodipodi:docname="GXD.svg"><metadata
     id="metadata21"><rdf:RDF><cc:Work
         rdf:about=""><dc:format>image/svg+xml</dc:format><dc:type
           rdf:resource="http://purl.org/dc/dcmitype/StillImage" /></cc:Work></rdf:RDF></metadata><defs
     id="defs19" /><sodipodi:namedview
     pagecolor="#ffffff"
     bordercolor="#666666"
     borderopacity="1"
     objecttolerance="10"
     gridtolerance="10"
     guidetolerance="10"
     inkscape:pageopacity="0"
     inkscape:pageshadow="2"
     inkscape:window-width="1440"
     inkscape:window-height="876"
     id="namedview17"
     showgrid="false"
     inkscape:zoom="7.9465332"
     inkscape:cx="42.611394"
     inkscape:cy="8.0989867"
     inkscape:window-x="0"
     inkscape:window-y="24"
     inkscape:window-maximized="1"
     inkscape:current-layer="Layer_1" /><g
     id="g3"><polygon
       fill="#3D6480"
       points="37.389,32.439 37.389,35.522 32.163,30.297 30.82,31.641 36.045,36.866 32.9,36.867 32.9,38.767    39.289,38.766 39.289,32.439  "
       id="polygon5" /><path
       d="m 25.803,12.857 0,-4.258 -13.377,0 0,24.411 10.838,0 6.837,-6.837 -0.038,-13.317 -4.26,0 z"
       id="path7"
       inkscape:connector-curvature="0"
       style="fill:#dbf3db"
       sodipodi:nodetypes="ccccccccc" /><polygon
       fill="#3D6480"
       points="31.762,12.869 30.051,11.158 27.504,11.158 27.504,8.61 25.794,6.9 10.725,6.9 10.725,34.71    21.564,34.71 23.263,33.01 12.426,33.01 12.426,8.599 25.803,8.599 25.803,12.857 30.062,12.857 30.1,26.174 31.795,24.478  "
       id="polygon9" /><g
       style="font-style:normal;font-weight:normal;font-size:6.15605736px;line-height:125%;font-family:sans-serif;letter-spacing:-0.46200934px;word-spacing:0px;fill:#3d6480;fill-opacity:1;stroke:none;stroke-width:1px;stroke-linecap:butt;stroke-linejoin:miter;stroke-opacity:1"
       id="text8082"><path
         d="m 12.618725,18.560605 1.157267,0 0,1.71035 1.707344,0 0,-1.71035 1.157267,0 0,4.48779 -1.157267,0 0,-1.902727 -1.707344,0 0,1.902727 -1.157267,0 0,-4.48779 z"
         style="font-style:normal;font-variant:normal;font-weight:bold;font-stretch:normal;line-height:0%;font-family:sans-serif;-inkscape-font-specification:'sans-serif Bold';letter-spacing:-0.46200934px;fill:#3d6480;fill-opacity:1"
         id="path8087" /><path
         d="m 16.77977,18.560605 4.136101,0 0,0.874714 -1.487914,0 0,3.613076 -1.157266,0 0,-3.613076 -1.490921,0 0,-0.874714 z"
         style="font-style:normal;font-variant:normal;font-weight:bold;font-stretch:normal;line-height:0%;font-family:sans-serif;-inkscape-font-specification:'sans-serif Bold';letter-spacing:-0.46200934px;fill:#3d6480;fill-opacity:1"
         id="path8089" /><path
         d="m 21.049028,18.560605 1.472885,0 1.022001,2.401704 1.028014,-2.401704 1.469879,0 0,4.48779 -1.094143,0 0,-3.282429 -1.034025,2.419739 -0.733437,0 -1.034025,-2.419739 0,3.282429 -1.097149,0 0,-4.48779 z"
         style="font-style:normal;font-variant:normal;font-weight:bold;font-stretch:normal;line-height:0%;font-family:sans-serif;-inkscape-font-specification:'sans-serif Bold';letter-spacing:-0.46200934px;fill:#3d6480;fill-opacity:1"
         id="path8091" /><path
         d="m 26.719029,18.560605 1.157267,0 0,3.613077 2.031979,0 0,0.874713 -3.189246,0 0,-4.48779 z"
         style="font-style:normal;font-variant:normal;font-weight:bold;font-stretch:normal;line-height:0%;font-family:sans-serif;-inkscape-font-specification:'sans-serif Bold';letter-spacing:-0.46200934px;fill:#3d6480;fill-opacity:1"
         id="path8093" /></g></g></svg>