<?xml version="1.0" encoding="UTF-8" standalone="no"?>
<!-- Generator: Adobe Illustrator 21.1.0, SVG Export Plug-In . SVG Version: 6.00 Build 0)  -->

<svg
   xmlns:dc="http://purl.org/dc/elements/1.1/"
   xmlns:cc="http://creativecommons.org/ns#"
   xmlns:rdf="http://www.w3.org/1999/02/22-rdf-syntax-ns#"
   xmlns:svg="http://www.w3.org/2000/svg"
   xmlns="http://www.w3.org/2000/svg"
   xmlns:sodipodi="http://sodipodi.sourceforge.net/DTD/sodipodi-0.dtd"
   xmlns:inkscape="http://www.inkscape.org/namespaces/inkscape"
   version="1.1"
   id="apache-kafka-producer"
   x="0px"
   y="0px"
   width="42px"
   height="42px"
   viewBox="0 0 42 42"
   style="enable-background:new 0 0 42 42;"
   xml:space="preserve"
   inkscape:version="0.91 r13725"
   sodipodi:docname="KafkaProducerOutput.svg"><metadata
     id="metadata25"><rdf:RDF><cc:Work
         rdf:about=""><dc:format>image/svg+xml</dc:format><dc:type
           rdf:resource="http://purl.org/dc/dcmitype/StillImage" /></cc:Work></rdf:RDF></metadata><defs
     id="defs23" /><sodipodi:namedview
     pagecolor="#ffffff"
     bordercolor="#666666"
     borderopacity="1"
     objecttolerance="10"
     gridtolerance="10"
     guidetolerance="10"
     inkscape:pageopacity="0"
     inkscape:pageshadow="2"
     inkscape:window-width="1366"
     inkscape:window-height="747"
     id="namedview21"
     showgrid="false"
     inkscape:zoom="5.6190476"
     inkscape:cx="-0.44491525"
     inkscape:cy="21"
     inkscape:window-x="0"
     inkscape:window-y="21"
     inkscape:window-maximized="1"
     inkscape:current-layer="g5" /><style
     type="text/css"
     id="style3">
	.st0{fill:#3D6480;}
	.st1{fill:#EFF9FE;}
	.st2{display:none;fill-rule:evenodd;clip-rule:evenodd;fill:none;stroke:#3D6480;stroke-miterlimit:3.8637;}
</style><g
     id="g5"><polygon
       class="st0"
       points="12.5,5.6 10.6,5.6 10.6,8.7 5.4,3.4 4.1,4.8 9.3,10 6.2,10 6.2,11.9 12.5,11.9  "
       id="polygon7" /><g
       id="g9"><polygon
         class="st1"
         points="32,32 32,10 19.2,10 10,19 10,32   "
         id="polygon11" /><polygon
         class="st0"
         points="32,10 32,32 10,32 10,19 8,21 8,34 34,34 34,8 21.3,8 19.2,10   "
         id="polygon13" /></g><path
       class="st2"
       d="M0,3c0-1.7,1.3-3,3-3l36,0c1.7,0,3,1.3,3,3v36c0,1.7-1.3,3-3,3H3c-1.7,0-3-1.3-3-3L0,3z"
       id="path15" /><path
       inkscape:connector-curvature="0"
       style="fill:#3d6480;fill-opacity:1;stroke:none"
       d="m 27.758598,19.441649 -4.896881,0 c -0.08188,0 -0.151553,-0.01875 -0.222459,-0.05959 -0.07109,-0.04103 -0.122017,-0.09195 -0.163046,-0.163039 -0.04086,-0.07091 -0.05959,-0.140584 -0.05959,-0.222458 l 0,-5.103432 c 0,-0.377893 -0.306454,-0.68452 -0.68417,-0.68452 l -1.748179,0 c -0.377893,0 -0.684171,0.306627 -0.684171,0.68452 l 0,5.072482 c 0,0.263308 -0.212911,0.477102 -0.476039,0.478342 l -1.604772,0.0076 c -0.265424,0.0014 -0.480984,-0.213793 -0.480456,-0.479043 l 0.0099,-5.078323 c 8.87e-4,-0.378421 -0.305747,-0.685581 -0.684174,-0.685581 l -1.746588,0 c -0.378073,0 -0.684346,0.306627 -0.684346,0.684519 l 0,14.290487 c 0,0.335808 0.271972,0.60778 0.607426,0.60778 l 13.517539,0 c 0.335808,0 0.607781,-0.271972 0.607781,-0.60778 l 0,-8.134184 c 0,-0.33581 -0.271973,-0.60778 -0.607781,-0.60778 z m -2.29636,5.365499 c 0,0.439963 -0.356673,0.796811 -0.79664,0.796811 l -1.381425,0 c -0.440143,0 -0.796817,-0.356848 -0.796817,-0.796811 l 0,-1.381428 c 0,-0.439963 0.356674,-0.796637 0.796817,-0.796637 l 1.381425,0 c 0.439967,0 0.79664,0.356674 0.79664,0.796637 l 0,1.381428 z"
       id="path61" /></g></svg>